<svg width="200" height="210" xmlns="http://www.w3.org/2000/svg">
 <g>
  <title>Layer 1</title>
  <ellipse stroke="null" ry="97.5" rx="97.5" id="svg_1" cy="105" cx="100" fill="rgb(32,32,34)"/>
  <path stroke="null" d="m99.98975,188.29588c-0.61251,-0.73501 -0.95376,-1.47877 -0.76126,-1.65377c0.42001,-0.39376 58.61708,-33.24172 66.17718,-37.35428l5.46008,-2.97504l0.00875,-40.74932l0.00875,-40.75807l-7.21885,-3.95506l-7.21885,-3.96381l-3.7188,1.79378c-2.04753,0.98876 -3.71005,2.01253 -3.71005,2.27503c0.00875,0.2625 3.06254,2.28378 6.78135,4.48881l6.7726,4.01631l0.2275,35.92801l0.2275,35.92801l-17.72775,10.28139c-9.74764,5.65258 -26.12787,15.14646 -36.39176,21.09655c-10.27264,5.95008 -19.03152,10.5964 -19.46902,10.32515c-0.44626,-0.27125 -0.80501,-1.03251 -0.80501,-1.68877c0,-1.21627 4.09506,-3.6838 46.60316,-28.02665l24.29034,-13.9127l-0.2275,-34.04673l-0.2275,-34.05548l-6.97385,-3.96381l-6.9826,-3.96381l-3.04504,1.76752c-1.68002,0.97126 -3.15879,2.11753 -3.29005,2.53754c-0.13125,0.42001 2.60754,2.35378 6.09009,4.28756l6.32634,3.5088l0.2275,29.87292l0.23625,29.86417l-23.86159,13.81644c-13.11643,7.60386 -29.43542,17.04524 -36.25176,20.9828c-11.94392,6.90385 -14.35895,7.63886 -14.2627,4.35756c0.02625,-0.80501 27.15163,-16.67774 60.1046,-35.16675l10.69265,-6.00258l0.02625,-27.57164l0.02625,-27.58039l-7.1051,-4.13881l-7.09635,-4.14756l-3.4038,1.90753c-1.86378,1.05876 -3.39505,2.20503 -3.39505,2.56379c0,0.35876 2.95754,2.28378 6.56259,4.27881l6.56259,3.62255l-0.0175,23.34533l-0.00875,23.34533l-14.2102,8.23387c-31.29919,18.14776 -57.96082,33.32922 -58.50332,33.32922c-0.63876,0 -1.83753,-2.71254 -1.39127,-3.15879c0.1575,-0.1575 16.01273,-9.31013 35.23675,-20.33529l34.95674,-20.05528l0.21,-21.32405l0.21,-21.3153l-6.7551,-3.76255c-6.92135,-3.8588 -8.62762,-4.06881 -11.99642,-1.47877c-2.11753,1.62752 -1.55752,2.25753 5.84508,6.53634l5.48633,3.17629l0.23625,16.23148c0.21,14.21895 0.06125,16.38898 -1.20752,17.4565c-0.79626,0.66501 -17.24649,10.34265 -36.54927,21.49905c-31.08044,17.95525 -35.228,20.11653 -36.19926,18.86527c-1.21627,-1.58377 1.68877,-3.4038 46.37565,-29.04166l23.40658,-13.43144l0,-14.69146l0,-14.69146l-7.0876,-3.99006l-7.0876,-3.98131l-3.4738,2.06503l-3.4738,2.07378l7.06135,4.07756l7.06135,4.06881l0,10.3339l0,10.32515l-31.28169,17.78025c-17.20274,9.78264 -33.82798,19.29402 -36.93427,21.1228l-5.66133,3.3338l-5.71383,-3.17629c-3.15004,-1.75002 -7.20135,-4.10381 -9.00388,-5.23257l-3.2813,-2.05628l0,-41.85184c0,-46.82191 -0.63876,-42.2981 6.56259,-46.48066c1.92503,-1.12002 11.56766,-6.76385 21.4378,-12.53018c9.87014,-5.77508 23.65158,-13.82519 30.62543,-17.88525c6.97385,-4.06006 13.13394,-7.75261 13.67644,-8.20762c0.69126,-0.56001 1.18127,-0.09625 1.57502,1.49627c0.32375,1.27752 0.46376,2.41503 0.32375,2.52879c-0.44626,0.36751 -46.0344,26.18037 -58.45082,33.10172l-11.81267,6.58009l-0.66501,12.10142c-0.36751,6.65884 -0.56876,24.99035 -0.43751,40.73182c0.2625,32.51546 -0.74376,28.77041 9.03013,33.83673l5.71383,2.95754l3.48255,-1.56627c1.91628,-0.86626 3.3513,-1.99503 3.17629,-2.50254c-0.16625,-0.50751 -3.13254,-2.63379 -6.58009,-4.72507l-6.28259,-3.81505l0,-35.7005c0,-27.51039 0.25375,-35.91051 1.09377,-36.58427c1.03251,-0.84001 15.80272,-9.50263 53.79576,-31.5617c9.25763,-5.37258 17.18524,-9.77389 17.62275,-9.77389c1.32127,0 1.83753,2.43253 0.71751,3.3338c-1.48752,1.19002 -64.56716,37.46803 -67.3847,38.7543l-2.34503,1.06752l0,34.34423l0,34.34423l7.0001,4.04256l7.00885,4.04256l3.48255,-1.99503c1.92503,-1.09377 3.4913,-2.19628 3.4913,-2.43253c0,-0.23625 -2.94879,-2.11753 -6.55384,-4.17381l-6.55384,-3.7363l0.00875,-29.95167l0.0175,-29.95167l28.20165,-16.31898c44.34563,-25.66411 44.44188,-25.71661 45.33439,-24.29034c0.43751,0.67376 0.79626,1.47877 0.79626,1.78503c0.0175,0.47251 -34.91299,20.85154 -62.76464,36.62802l-8.09386,4.58506l0.00875,27.67664l0.00875,27.68539l6.42259,3.7188c3.53505,2.04753 6.86885,3.7188 7.41135,3.7188c1.53127,0 6.7551,-3.4038 6.36134,-4.14756c-0.1925,-0.36751 -3.06254,-2.24003 -6.37009,-4.16506l-6.02008,-3.50005l-0.43751,-23.25783l-0.42876,-23.25783l33.92423,-19.51278c18.66401,-10.72765 35.18425,-20.25654 36.70677,-21.1753c2.76504,-1.66252 2.78254,-1.66252 3.36005,0.175c0.32375,1.01501 0.45501,1.96878 0.28875,2.10878c-0.57751,0.51626 -38.09804,22.11156 -53.82201,30.98419l-15.89897,8.96888l-0.30625,20.72904c-0.16625,11.41016 -0.1925,21.13155 -0.0525,21.6128c0.14875,0.48126 3.41255,2.57254 7.27135,4.64632l7.0001,3.7713l3.03629,-1.87253c1.67127,-1.03251 3.03629,-2.14378 3.03629,-2.46753c0,-0.32375 -2.85254,-2.17003 -6.34384,-4.10381l-6.34384,-3.51755l-0.23625,-16.74774l-0.23625,-16.74774l2.42378,-1.69752c1.33002,-0.92751 17.7365,-10.44765 36.45301,-21.1403c32.80421,-18.75151 35.49925,-20.02028 35.508,-16.68649c0,0.48126 -11.71642,7.4201 -46.4019,27.44914l-23.13533,13.35269l-0.23625,14.96271l-0.245,14.96271l6.65884,3.67505l6.65009,3.67505l3.43005,-1.54877c1.89003,-0.84876 3.43005,-1.77628 3.4213,-2.06503c-0.00875,-0.28875 -2.95754,-2.20503 -6.56259,-4.26131l-6.55384,-3.7363l0.0175,-10.7014l0.02625,-10.7014l32.56796,-18.49776c17.92025,-10.17639 34.54549,-19.58278 36.95177,-20.89529l4.37506,-2.40628l8.53137,5.10132l8.53137,5.10132l0,42.2106l0,42.20185l-2.40628,1.68877c-2.45878,1.71502 -22.33906,13.40519 -50.53196,29.71542c-8.66262,5.01382 -16.12648,9.47638 -16.58148,9.91389c-1.22502,1.18127 -2.74754,0.98001 -3.99881,-0.52501zm7.45511,-70.72725l6.12509,-3.76255l0.245,-8.26887l0.25375,-8.26012l-6.90385,-4.03381l-6.8951,-4.03381l-7.1051,4.05131l-7.1051,4.05131l-0.02625,8.01511l-0.02625,8.01511l6.78135,3.97256c3.72755,2.18753 7.1751,3.98131 7.65636,3.99006c0.48126,0.0175 3.6313,-1.67127 7.0001,-3.7363z" fill="rgb(204,175,93)" id="svg_3"/>
 </g>

</svg>