<svg xmlns="http://www.w3.org/2000/svg" width="210" height="210" viewBox="0 0 210 210">
<g>
<path d="M 0.00 0.00 L 210.00 0.00 L 210.00 210.00 L 0.00 210.00 ZM 107.98 198.48 C109.41,200.20 111.15,200.43 112.55,199.08 C113.07,198.58 121.60,193.48 131.50,187.75 C163.72,169.11 186.44,155.75 189.25,153.79 L 192.00 151.86 L 192.00 55.39 L 182.25 49.56 L 172.50 43.73 L 167.50 46.48 C164.75,47.98 145.75,58.73 125.27,70.36 L 88.05 91.50 L 88.02 103.73 L 88.00 115.96 L 95.49 120.23 C99.61,122.58 102.98,124.77 102.99,125.10 C103.00,125.43 101.24,126.49 99.08,127.46 L 95.16 129.23 L 87.56 125.03 L 79.95 120.83 L 80.23 103.73 L 80.50 86.63 L 106.94 71.37 C146.58,48.48 159.97,40.55 159.97,40.00 C159.96,36.19 156.88,37.64 119.39,59.07 C98.00,71.29 79.25,82.17 77.73,83.23 L 74.96 85.17 L 75.50 123.45 L 82.75 127.47 C86.74,129.68 90.00,131.79 90.00,132.16 C90.00,132.53 88.44,133.80 86.53,134.98 L 83.06 137.12 L 75.06 132.81 C70.65,130.44 66.92,128.05 66.75,127.50 C66.59,126.95 66.62,115.84 66.81,102.80 L 67.16 79.11 L 85.33 68.86 C103.30,58.72 146.18,34.04 146.84,33.45 C147.03,33.29 146.88,32.20 146.51,31.04 C145.85,28.94 145.83,28.94 142.67,30.84 C140.93,31.89 122.05,42.78 100.72,55.04 L 61.95 77.34 L 62.44 103.92 L 62.94 130.50 L 69.82 134.50 C73.60,136.70 76.88,138.84 77.10,139.26 C77.55,140.11 71.58,144.00 69.83,144.00 C69.21,144.00 65.40,142.09 61.36,139.75 L 54.02 135.50 L 54.00 72.23 L 63.25 66.99 C95.08,48.96 135.00,25.67 134.98,25.13 C134.98,24.78 134.57,23.86 134.07,23.09 C133.05,21.46 132.94,21.52 82.26,50.85 L 50.03 69.50 L 50.01 103.73 L 50.00 137.96 L 57.49 142.23 C61.61,144.58 64.98,146.73 64.98,147.00 C64.98,147.27 63.19,148.53 60.99,149.78 L 57.01 152.06 L 41.00 142.82 L 41.00 64.32 L 43.68 63.10 C46.90,61.63 118.99,20.17 120.69,18.81 C121.97,17.78 121.38,15.00 119.87,15.00 C119.37,15.00 110.31,20.03 99.73,26.17 C56.31,51.38 39.43,61.28 38.25,62.24 C37.29,63.01 37.00,72.61 37.00,104.05 L 37.00 144.85 L 44.18 149.21 C48.12,151.60 51.51,154.03 51.70,154.61 C51.90,155.19 50.26,156.48 48.07,157.47 L 44.09 159.26 L 37.56 155.88 C33.83,153.95 31.47,153.14 29.97,151.52 C27.41,148.76 27.38,143.63 27.29,126.41 C27.28,123.66 27.26,120.61 27.24,117.21 C27.09,99.22 27.32,78.27 27.74,70.66 L 28.50 56.83 L 42.00 49.31 C56.19,41.40 108.29,11.90 108.80,11.48 C108.96,11.35 108.80,10.05 108.43,8.59 C107.98,6.77 107.42,6.24 106.63,6.88 C106.01,7.40 98.97,11.62 91.00,16.26 C83.03,20.90 67.28,30.10 56.00,36.70 C44.72,43.29 33.70,49.74 31.50,51.02 C29.46,52.20 27.97,52.78 26.88,53.79 C23.95,56.51 23.95,62.41 23.99,92.11 C24.00,95.75 24.00,99.75 24.00,104.14 L 24.00 151.97 L 27.75 154.32 C29.81,155.61 34.44,158.30 38.04,160.30 L 44.57 163.93 L 51.04 160.12 C54.59,158.03 73.59,147.16 93.25,135.98 L 129.00 115.66 L 129.00 92.05 L 120.93 87.40 L 112.86 82.74 L 116.83 80.37 L 120.80 78.01 L 128.90 82.56 L 137.00 87.12 L 137.00 120.70 L 110.25 136.05 C59.18,165.35 55.86,167.43 57.25,169.24 C58.36,170.67 63.10,168.20 98.62,147.68 C120.68,134.93 139.48,123.87 140.39,123.11 C141.84,121.89 142.01,119.41 141.77,103.16 L 141.50 84.61 L 135.23 80.98 C126.77,76.09 126.13,75.37 128.55,73.51 C132.40,70.55 134.35,70.79 142.26,75.20 L 149.98 79.50 L 149.74 103.86 L 149.50 128.23 L 109.55 151.15 C87.58,163.75 69.46,174.21 69.28,174.39 C68.77,174.90 70.14,178.00 70.87,178.00 C71.49,178.00 101.96,160.65 137.73,139.91 L 153.97 130.50 L 153.98 103.82 L 154.00 77.14 L 146.50 73.00 C142.38,70.72 139.00,68.52 139.00,68.11 C139.00,67.70 140.75,66.39 142.88,65.18 L 146.77 63.00 L 154.88 67.74 L 163.00 72.47 L 162.94 135.50 L 150.72 142.36 C113.06,163.49 82.06,181.63 82.03,182.55 C81.92,186.30 84.68,185.46 98.33,177.57 C106.12,173.07 124.77,162.28 139.76,153.59 L 167.03 137.80 L 166.76 103.67 L 166.50 69.53 L 159.27 65.52 C155.29,63.31 152.16,61.10 152.31,60.62 C152.46,60.14 154.15,58.83 156.07,57.72 L 159.55 55.70 L 167.53 60.23 L 175.50 64.76 L 175.76 103.68 L 176.02 142.59 L 148.26 158.49 C99.68,186.31 95.00,189.13 95.00,190.52 C95.00,191.27 95.41,192.14 95.92,192.45 C96.42,192.76 106.43,187.45 118.17,180.65 C129.90,173.85 148.62,163.00 159.76,156.54 L 180.02 144.79 L 179.76 103.73 L 179.50 62.67 L 171.76 58.08 C167.51,55.56 164.02,53.25 164.01,52.95 C164.01,52.65 165.91,51.48 168.25,50.35 L 172.50 48.30 L 189.00 57.35 L 188.99 103.93 L 188.98 150.50 L 182.74 153.90 C174.10,158.60 107.59,196.14 107.11,196.59 C106.89,196.79 107.28,197.64 107.98,198.48 ZM 116.50 117.65 C112.65,120.01 109.05,121.94 108.50,121.92 C107.95,121.91 104.01,119.86 99.75,117.36 L 92.00 112.82 L 92.06 94.50 L 100.18 89.87 L 108.30 85.24 L 116.18 89.85 L 124.07 94.46 L 123.50 113.35 Z" fill="rgb(32,32,34)"/>
<path d="M 107.98 198.48 C107.28,197.64 106.89,196.79 107.11,196.59 C107.59,196.14 174.10,158.60 182.74,153.90 L 188.98 150.50 L 188.99 103.93 L 189.00 57.35 L 180.75 52.83 L 172.50 48.30 L 168.25 50.35 C165.91,51.48 164.01,52.65 164.01,52.95 C164.02,53.25 167.51,55.56 171.76,58.08 L 179.50 62.67 L 179.76 103.73 L 180.02 144.79 L 159.76 156.54 C148.62,163.00 129.90,173.85 118.17,180.65 C106.43,187.45 96.42,192.76 95.92,192.45 C95.41,192.14 95.00,191.27 95.00,190.52 C95.00,189.13 99.68,186.31 148.26,158.49 L 176.02 142.59 L 175.76 103.68 L 175.50 64.76 L 167.53 60.23 L 159.55 55.70 L 156.07 57.72 C154.15,58.83 152.46,60.14 152.31,60.62 C152.16,61.10 155.29,63.31 159.27,65.52 L 166.50 69.53 L 166.76 103.67 L 167.03 137.80 L 139.76 153.59 C124.77,162.28 106.12,173.07 98.33,177.57 C84.68,185.46 81.92,186.30 82.03,182.55 C82.06,181.63 113.06,163.49 150.72,142.36 L 162.94 135.50 L 162.97 103.99 L 163.00 72.47 L 154.88 67.74 L 146.77 63.00 L 142.88 65.18 C140.75,66.39 139.00,67.70 139.00,68.11 C139.00,68.52 142.38,70.72 146.50,73.00 L 154.00 77.14 L 153.98 103.82 L 153.97 130.50 L 137.73 139.91 C101.96,160.65 71.49,178.00 70.87,178.00 C70.14,178.00 68.77,174.90 69.28,174.39 C69.46,174.21 87.58,163.75 109.55,151.15 L 149.50 128.23 L 149.74 103.86 L 149.98 79.50 L 142.26 75.20 C134.35,70.79 132.40,70.55 128.55,73.51 C126.13,75.37 126.77,76.09 135.23,80.98 L 141.50 84.61 L 141.77 103.16 C142.01,119.41 141.84,121.89 140.39,123.11 C139.48,123.87 120.68,134.93 98.62,147.68 C63.10,168.20 58.36,170.67 57.25,169.24 C55.86,167.43 59.18,165.35 110.25,136.05 L 137.00 120.70 L 137.00 103.91 L 137.00 87.12 L 128.90 82.56 L 120.80 78.01 L 116.83 80.37 L 112.86 82.74 L 120.93 87.40 L 129.00 92.05 L 129.00 103.86 L 129.00 115.66 L 93.25 135.98 C73.59,147.16 54.59,158.03 51.04,160.12 L 44.57 163.93 L 38.04 160.30 C34.44,158.30 29.81,155.61 27.75,154.32 L 24.00 151.97 L 24.00 104.14 C24.00,50.63 23.27,55.80 31.50,51.02 C33.70,49.74 44.72,43.29 56.00,36.70 C67.28,30.10 83.03,20.90 91.00,16.26 C98.97,11.62 106.01,7.40 106.63,6.88 C107.42,6.24 107.98,6.77 108.43,8.59 C108.80,10.05 108.96,11.35 108.80,11.48 C108.29,11.90 56.19,41.40 42.00,49.31 L 28.50 56.83 L 27.74 70.66 C27.32,78.27 27.09,99.22 27.24,117.21 C27.54,154.37 26.39,150.09 37.56,155.88 L 44.09 159.26 L 48.07 157.47 C50.26,156.48 51.90,155.19 51.70,154.61 C51.51,154.03 48.12,151.60 44.18,149.21 L 37.00 144.85 L 37.00 104.05 C37.00,72.61 37.29,63.01 38.25,62.24 C39.43,61.28 56.31,51.38 99.73,26.17 C110.31,20.03 119.37,15.00 119.87,15.00 C121.38,15.00 121.97,17.78 120.69,18.81 C118.99,20.17 46.90,61.63 43.68,63.10 L 41.00 64.32 L 41.00 103.57 L 41.00 142.82 L 49.00 147.44 L 57.01 152.06 L 60.99 149.78 C63.19,148.53 64.98,147.27 64.98,147.00 C64.98,146.73 61.61,144.58 57.49,142.23 L 50.00 137.96 L 50.01 103.73 L 50.03 69.50 L 82.26 50.85 C132.94,21.52 133.05,21.46 134.07,23.09 C134.57,23.86 134.98,24.78 134.98,25.13 C135.00,25.67 95.08,48.96 63.25,66.99 L 54.00 72.23 L 54.01 103.86 L 54.02 135.50 L 61.36 139.75 C65.40,142.09 69.21,144.00 69.83,144.00 C71.58,144.00 77.55,140.11 77.10,139.26 C76.88,138.84 73.60,136.70 69.82,134.50 L 62.94 130.50 L 62.44 103.92 L 61.95 77.34 L 100.72 55.04 C122.05,42.78 140.93,31.89 142.67,30.84 C145.83,28.94 145.85,28.94 146.51,31.04 C146.88,32.20 147.03,33.29 146.84,33.45 C146.18,34.04 103.30,58.72 85.33,68.86 L 67.16 79.11 L 66.81 102.80 C66.62,115.84 66.59,126.95 66.75,127.50 C66.92,128.05 70.65,130.44 75.06,132.81 L 83.06 137.12 L 86.53 134.98 C88.44,133.80 90.00,132.53 90.00,132.16 C90.00,131.79 86.74,129.68 82.75,127.47 L 75.50 123.45 L 75.23 104.31 L 74.96 85.17 L 77.73 83.23 C79.25,82.17 98.00,71.29 119.39,59.07 C156.88,37.64 159.96,36.19 159.97,40.00 C159.97,40.55 146.58,48.48 106.94,71.37 L 80.50 86.63 L 80.23 103.73 L 79.95 120.83 L 87.56 125.03 L 95.16 129.23 L 99.08 127.46 C101.24,126.49 103.00,125.43 102.99,125.10 C102.98,124.77 99.61,122.58 95.49,120.23 L 88.00 115.96 L 88.02 103.73 L 88.05 91.50 L 125.27 70.36 C145.75,58.73 164.75,47.98 167.50,46.48 L 172.50 43.73 L 182.25 49.56 L 192.00 55.39 L 192.00 103.63 L 192.00 151.86 L 189.25 153.79 C186.44,155.75 163.72,169.11 131.50,187.75 C121.60,193.48 113.07,198.58 112.55,199.08 C111.15,200.43 109.41,200.20 107.98,198.48 ZM 116.50 117.65 L 123.50 113.35 L 123.78 103.90 L 124.07 94.46 L 116.18 89.85 L 108.30 85.24 L 100.18 89.87 L 92.06 94.50 L 92.03 103.66 L 92.00 112.82 L 99.75 117.36 C104.01,119.86 107.95,121.91 108.50,121.92 C109.05,121.94 112.65,120.01 116.50,117.65 Z" fill="rgb(204,175,93)"/>
</g>
</svg>